<svg width="20" height="20" viewBox="0 0 20 20" fill="currentColor" xmlns="http://www.w3.org/2000/svg">
<g clip-path="url(#clip0_6630_14388)">
<path d="M9.33333 3.5C12.5083 3.5 15.1 6.08333 15.1 9.26667C15.1 12.45 12.5167 15.0333 9.33333 15.0333C6.15 15.0333 3.56667 12.45 3.56667 9.26667C3.56667 6.08333 6.15 3.5 9.33333 3.5ZM9.33333 2.5C5.6 2.5 2.56667 5.525 2.56667 9.26667C2.56667 13.0083 5.59167 16.0333 9.33333 16.0333C13.075 16.0333 16.1 13.0083 16.1 9.26667C16.1 5.525 13.0667 2.5 9.33333 2.5Z" fill="currentColor"/>
<path d="M17.6917 17.7666C17.1917 18.2666 16.3833 18.2666 15.8917 17.7666L12.625 14.5L14.425 12.7L17.6917 15.9666C18.1917 16.4666 18.1917 17.275 17.6917 17.7666Z" fill="currentColor"/>
</g>
<defs>
<clipPath id="clip0_6630_14388">
<rect width="20" height="20" fill="currentColor"/>
</clipPath>
</defs>
</svg>
