<svg width="28" height="28" viewBox="0 0 28 28" fill="none" xmlns="http://www.w3.org/2000/svg">
<g clip-path="url(#clip0_2_3919)">
<path d="M22.2483 19.845L21.1633 17.4534V13.93C21.1633 9.69505 18.025 6.38171 14.0117 6.38171C9.99834 6.38171 6.86001 9.69505 6.86001 13.93V17.4534L5.77501 19.845C5.68168 20.0667 5.69334 20.3117 5.82168 20.51C5.95001 20.7084 6.17168 20.8367 6.40501 20.8367H21.6183C21.8517 20.8367 22.0733 20.72 22.2017 20.51C22.33 20.3 22.3533 20.055 22.2483 19.845Z" fill="white"/>
<path d="M12.7284 5.36668H15.26C15.645 5.36668 15.96 5.05167 15.96 4.66667C15.96 4.28167 15.645 3.96667 15.26 3.96667H12.7284C12.3434 3.96667 12.0284 4.28167 12.0284 4.66667C12.0284 5.05167 12.3434 5.36668 12.7284 5.36668Z" fill="white"/>
<path d="M16.0067 22.645L12.2967 21.8167C11.9234 21.735 11.55 21.9683 11.4567 22.3533C11.375 22.7267 11.6084 23.1 11.9934 23.1933L15.7034 24.0217C15.7034 24.0217 15.8084 24.0333 15.855 24.0333C16.17 24.0333 16.4617 23.8117 16.5317 23.485C16.6134 23.1117 16.38 22.7383 15.995 22.645H16.0067Z" fill="white"/>
</g>
<defs>
<clipPath id="clip0_2_3919">
<rect width="28" height="28" fill="white"/>
</clipPath>
</defs>
</svg>
