<svg width="18" height="18" viewBox="0 0 18 18" fill="currentColor" xmlns="http://www.w3.org/2000/svg">
<g clip-path="url(#clip0_2_14997)">
<path d="M13.875 2.4C14.205 2.4 14.475 2.67 14.475 3V15C14.475 15.33 14.205 15.6 13.875 15.6H4.125C3.795 15.6 3.525 15.33 3.525 15V3C3.525 2.67 3.795 2.4 4.125 2.4H13.875ZM13.875 1.5H4.125C3.3 1.5 2.625 2.175 2.625 3V15C2.625 15.825 3.3 16.5 4.125 16.5H13.875C14.7 16.5 15.375 15.825 15.375 15V3C15.375 2.175 14.7 1.5 13.875 1.5Z" fill="currentColor"/>
<path d="M5.99998 13.0125C5.70748 13.0125 5.47498 12.78 5.47498 12.4875C5.47498 12.195 5.70748 11.9625 5.99998 11.9625C6.29248 11.9625 6.52497 12.195 6.52497 12.4875C6.52497 12.78 6.29248 13.0125 5.99998 13.0125Z" fill="currentColor"/>
<path d="M5.99998 10.0125C5.70748 10.0125 5.47498 9.78002 5.47498 9.48752C5.47498 9.19502 5.70748 8.96252 5.99998 8.96252C6.29248 8.96252 6.52497 9.19502 6.52497 9.48752C6.52497 9.78002 6.29248 10.0125 5.99998 10.0125Z" fill="currentColor"/>
<path d="M5.99998 7.01253C5.70748 7.01253 5.47498 6.78002 5.47498 6.48752C5.47498 6.19502 5.70748 5.96252 5.99998 5.96252C6.29248 5.96252 6.52497 6.19502 6.52497 6.48752C6.52497 6.78002 6.29248 7.01253 5.99998 7.01253Z" fill="currentColor"/>
<path d="M12.075 12.9375H7.72502C7.47752 12.9375 7.27502 12.735 7.27502 12.4875C7.27502 12.24 7.47752 12.0375 7.72502 12.0375H12.075C12.3225 12.0375 12.525 12.24 12.525 12.4875C12.525 12.735 12.3225 12.9375 12.075 12.9375Z" fill="currentColor"/>
<path d="M12.075 9.93748H7.72502C7.47752 9.93748 7.27502 9.73497 7.27502 9.48748C7.27502 9.23998 7.47752 9.03748 7.72502 9.03748H12.075C12.3225 9.03748 12.525 9.23998 12.525 9.48748C12.525 9.73497 12.3225 9.93748 12.075 9.93748Z" fill="currentColor"/>
<path d="M12.075 6.93748H7.72502C7.47752 6.93748 7.27502 6.73497 7.27502 6.48748C7.27502 6.23998 7.47752 6.03748 7.72502 6.03748H12.075C12.3225 6.03748 12.525 6.23998 12.525 6.48748C12.525 6.73497 12.3225 6.93748 12.075 6.93748Z" fill="currentColor"/>
</g>
<defs>
<clipPath id="clip0_2_14997">
<rect width="18" height="18" fill="currentColor"/>
</clipPath>
</defs>
</svg>
