<svg width="116" height="16" viewBox="0 0 116 16" fill="none" xmlns="http://www.w3.org/2000/svg">
<g clip-path="url(#clip0_4015_47361)">
<path d="M0 11.9438L1.18184 9.26024C2.20513 9.86866 3.57433 10.2598 4.77058 10.2598C5.81189 10.2598 6.18302 10.0425 6.18302 9.66585C6.18302 8.29329 0.172951 9.40148 0.172951 5.32724C0.169348 3.29555 1.86283 1.6405 5.23539 1.6405C6.69466 1.6405 8.20078 1.95196 9.33578 2.59297L8.23321 5.26205C7.16307 4.7152 6.15059 4.45082 5.20656 4.45082C4.13642 4.45082 3.79412 4.76228 3.79412 5.13892C3.79412 6.44992 9.80419 5.35621 9.80419 9.38337C9.80419 11.3825 8.1107 13.0665 4.74175 13.0665C2.92576 13.0665 1.09176 12.6138 0.00360316 11.9438H0Z" fill="#7566FF"/>
<path d="M20.0876 4.2771L16.5925 12.9869C15.6593 15.3301 14.2937 16.0001 12.4921 16.0001C11.5589 16.0001 10.4888 15.7031 9.91228 15.2359L11.0761 12.8167C11.4184 13.0811 11.8976 13.2694 12.3192 13.2694C12.7408 13.2694 13.0038 13.1463 13.1875 12.9254L9.61682 4.2771H13.22L14.9747 8.85112L16.7619 4.2771H20.0876Z" fill="#7566FF"/>
<path d="M26.7246 4.12134V7.24311C26.4147 7.19603 26.195 7.18155 25.9463 7.18155C24.8906 7.18155 24.1448 7.66683 24.1448 9.02491V12.8167H20.6353V4.27706H23.9754V5.19694C24.5988 4.47987 25.5428 4.12134 26.7246 4.12134Z" fill="#7566FF"/>
<path d="M37.0116 4.2771V12.8167H33.6715V12.0055C33.0337 12.661 32.1798 12.9724 31.2646 12.9724C29.2288 12.9724 27.6938 11.7701 27.6938 8.99236V4.2771H31.2033V8.38394C31.2033 9.60078 31.6213 10.0064 32.3059 10.0064C32.9112 10.0064 33.5021 9.5537 33.5021 8.28977V4.2771H37.0116Z" fill="#7566FF"/>
<path d="M48.3399 8.55411C48.3399 11.3029 46.4591 12.9724 44.2395 12.9724C43.3099 12.9724 42.5929 12.737 42.0812 12.2372V15.8443H38.5718V4.27706H41.9119V4.97964C42.4235 4.4002 43.1838 4.12134 44.2431 4.12134C46.4627 4.12134 48.3435 5.80536 48.3435 8.55411H48.3399ZM44.7836 8.55411C44.7836 7.44592 44.1783 6.87009 43.4 6.87009C42.6217 6.87009 42.0164 7.44954 42.0164 8.55411C42.0164 9.65869 42.6217 10.2236 43.4 10.2236C44.1783 10.2236 44.7836 9.66231 44.7836 8.55411Z" fill="#7566FF"/>
<path d="M57.8847 4.66823V6.54057H62.4211V9.3183H57.8847V12.8167H54.2203V1.8905H63.0588V4.66823H57.8883H57.8847Z" fill="#7566FF"/>
<path d="M70.049 4.12134V7.24311C69.7391 7.19603 69.5193 7.18155 69.2707 7.18155C68.215 7.18155 67.4691 7.66683 67.4691 9.02491V12.8167H63.9596V4.27706H67.2998V5.19694C67.9231 4.47987 68.8671 4.12134 70.049 4.12134Z" fill="#7566FF"/>
<path d="M70.6903 1.79629C70.6903 0.782254 71.5118 0 72.8018 0C74.0917 0 74.9132 0.717067 74.9132 1.73472C74.9132 2.81032 74.0917 3.59258 72.8018 3.59258C71.5118 3.59258 70.6903 2.81032 70.6903 1.79629ZM71.047 4.27705H74.5565V12.8167H71.047V4.27705Z" fill="#7566FF"/>
<path d="M85.1065 9.3653H79.2046C79.4532 10.0208 80.0441 10.3648 80.9125 10.3648C81.6907 10.3648 82.1231 10.162 82.6816 9.73832L84.5156 11.5962C83.6941 12.5016 82.4978 12.9687 80.8044 12.9687C77.684 12.9687 75.6627 11.0783 75.6627 8.53596C75.6627 5.99364 77.7273 4.11768 80.4765 4.11768C82.9915 4.11768 85.1534 5.64597 85.1534 8.53596C85.1534 8.78585 85.1209 9.11541 85.1065 9.36168V9.3653ZM79.1433 7.66317H81.8781C81.7376 6.9461 81.2259 6.52238 80.5125 6.52238C79.7991 6.52238 79.2874 6.9461 79.1469 7.66317H79.1433Z" fill="#7566FF"/>
<path d="M95.6422 7.94569V12.8167H92.1327V8.55411C92.1327 7.493 91.7291 7.08739 91.0914 7.08739C90.378 7.08739 89.7726 7.54008 89.7726 8.804V12.8167H86.2632V4.27706H89.6033V5.12089C90.2699 4.4509 91.1706 4.12134 92.1651 4.12134C94.1216 4.12134 95.6458 5.26213 95.6458 7.94569H95.6422Z" fill="#7566FF"/>
<path d="M106.722 1.23499V12.8167H103.382V12.1141C102.87 12.6899 102.106 12.9724 101.051 12.9724C98.831 12.9724 96.9501 11.2848 96.9501 8.53965C96.9501 5.79451 98.831 4.12136 101.051 4.12136C101.984 4.12136 102.697 4.35676 103.209 4.85653V1.23499H106.718H106.722ZM103.274 8.53965C103.274 7.43145 102.668 6.87011 101.89 6.87011C101.112 6.87011 100.506 7.43145 100.506 8.53965C100.506 9.64784 101.112 10.2273 101.89 10.2273C102.668 10.2273 103.274 9.64784 103.274 8.53965Z" fill="#7566FF"/>
<path d="M107.752 12.1286L108.714 9.80355C109.522 10.2888 110.671 10.5677 111.68 10.5677C112.534 10.5677 112.768 10.412 112.768 10.1621C112.768 9.28929 107.875 10.459 107.875 7.04031C107.875 5.43234 109.367 4.12134 112.224 4.12134C113.467 4.12134 114.786 4.35674 115.687 4.82392L114.724 7.14895C113.856 6.66366 112.984 6.52242 112.271 6.52242C111.37 6.52242 111.121 6.72523 111.121 6.92804C111.121 7.81894 116 6.66366 116 10.0824C116 11.6288 114.555 12.9688 111.604 12.9688C110.145 12.9688 108.621 12.6247 107.752 12.125V12.1286Z" fill="#7566FF"/>
</g>
<defs>
<clipPath id="clip0_4015_47361">
<rect width="116" height="16" fill="white"/>
</clipPath>
</defs>
</svg>
