<svg width="28" height="28" viewBox="0 0 28 28" fill="none" xmlns="http://www.w3.org/2000/svg">
<g clip-path="url(#clip0_6630_14400)">
<path d="M22.1667 2.33331H5.83337C3.89671 2.33331 2.33337 3.89665 2.33337 5.83331V22.1666C2.33337 24.1033 3.89671 25.6666 5.83337 25.6666H22.1667C24.1034 25.6666 25.6667 24.1033 25.6667 22.1666V5.83331C25.6667 3.89665 24.1034 2.33331 22.1667 2.33331ZM21.7934 10.0216L13.6267 19.355C13.44 19.5766 13.16 19.705 12.8684 19.7166C12.8684 19.7166 12.845 19.7166 12.8334 19.7166C12.5534 19.7166 12.285 19.6116 12.0867 19.4133L6.83671 14.1633C6.42837 13.755 6.42837 13.09 6.83671 12.6816C7.24504 12.2733 7.91004 12.2733 8.31837 12.6816L12.775 17.1383L20.2067 8.64498C20.5917 8.21331 21.2567 8.16665 21.6884 8.55165C22.12 8.93665 22.1667 9.60165 21.7817 10.0333L21.7934 10.0216Z" fill="#222127"/>
</g>
<defs>
<clipPath id="clip0_6630_14400">
<rect width="28" height="28" fill="white"/>
</clipPath>
</defs>
</svg>
