<svg width="16" height="16" viewBox="0 0 16 16" fill="none" xmlns="http://www.w3.org/2000/svg">
<g clip-path="url(#clip0_2_17425)">
<path d="M7.99999 8.95997C7.73999 8.95997 7.53333 8.7533 7.53333 8.4933V5.15996C7.53333 4.89996 7.73999 4.6933 7.99999 4.6933C8.25999 4.6933 8.46666 4.89996 8.46666 5.15996V8.4933C8.46666 8.7533 8.25999 8.95997 7.99999 8.95997Z" fill="#878787"/>
<path d="M7.99999 11.3066C7.73999 11.3066 7.53333 11.1 7.53333 10.84V10.5066C7.53333 10.2466 7.73999 10.04 7.99999 10.04C8.25999 10.04 8.46666 10.2466 8.46666 10.5066V10.84C8.46666 11.1 8.25999 11.3066 7.99999 11.3066Z" fill="#878787"/>
<path d="M8.00004 2.13331C11.2334 2.13331 13.8667 4.76665 13.8667 7.99998C13.8667 11.2333 11.2334 13.8666 8.00004 13.8666C4.76671 13.8666 2.13337 11.2333 2.13337 7.99998C2.13337 4.76665 4.76671 2.13331 8.00004 2.13331ZM8.00004 1.33331C4.32004 1.33331 1.33337 4.31998 1.33337 7.99998C1.33337 11.68 4.32004 14.6666 8.00004 14.6666C11.68 14.6666 14.6667 11.68 14.6667 7.99998C14.6667 4.31998 11.68 1.33331 8.00004 1.33331Z" fill="#878787"/>
</g>
<defs>
<clipPath id="clip0_2_17425">
<rect width="16" height="16" fill="white"/>
</clipPath>
</defs>
</svg>
