<svg width="28" height="28" viewBox="0 0 28 28" fill="none" xmlns="http://www.w3.org/2000/svg">
<g clip-path="url(#clip0_6740_36252)">
<path d="M22.1666 2.33337H5.83331C3.89665 2.33337 2.33331 3.89671 2.33331 5.83337V22.1667C2.33331 24.1034 3.89665 25.6667 5.83331 25.6667H22.1666C24.1033 25.6667 25.6666 24.1034 25.6666 22.1667V5.83337C25.6666 3.89671 24.1033 2.33337 22.1666 2.33337ZM21.7933 10.0217L13.6266 19.355C13.44 19.5767 13.16 19.705 12.8683 19.7167C12.8683 19.7167 12.845 19.7167 12.8333 19.7167C12.5533 19.7167 12.285 19.6117 12.0866 19.4134L6.83665 14.1634C6.42831 13.755 6.42831 13.09 6.83665 12.6817C7.24498 12.2734 7.90998 12.2734 8.31831 12.6817L12.775 17.1384L20.2066 8.64504C20.5916 8.21337 21.2566 8.16671 21.6883 8.55171C22.12 8.93671 22.1666 9.60171 21.7816 10.0334L21.7933 10.0217Z" fill="#C8C2FF"/>
</g>
<defs>
<clipPath id="clip0_6740_36252">
<rect width="28" height="28" fill="white"/>
</clipPath>
</defs>
</svg>
