<svg width="12" height="12" viewBox="0 0 12 12" fill="none" xmlns="http://www.w3.org/2000/svg">
<g clip-path="url(#clip0_6767_32498)">
<path d="M6.49506 6L9.74506 2.75C9.88006 2.615 9.88006 2.39 9.74506 2.255C9.61006 2.12 9.38506 2.12 9.25006 2.255L6.00006 5.505L2.75006 2.255C2.61506 2.12 2.39006 2.12 2.25506 2.255C2.12006 2.39 2.12006 2.615 2.25506 2.75L5.50506 6L2.25506 9.25C2.12006 9.385 2.12006 9.61 2.25506 9.745C2.32506 9.815 2.41506 9.85 2.50506 9.85C2.59506 9.85 2.68506 9.815 2.75506 9.745L6.00506 6.495L9.25506 9.745C9.32506 9.815 9.41506 9.85 9.50506 9.85C9.59506 9.85 9.68506 9.815 9.75506 9.745C9.89006 9.61 9.89006 9.385 9.75506 9.25L6.50506 6H6.49506Z" fill="white"/>
</g>
<defs>
<clipPath id="clip0_6767_32498">
<rect width="12" height="12" fill="white"/>
</clipPath>
</defs>
</svg>
