<svg width="24" height="24" viewBox="0 0 24 24" fill="currentColor" xmlns="http://www.w3.org/2000/svg">
<g clip-path="url(#clip0_2_14989)">
<path d="M12.99 12L19.49 5.49999C19.76 5.22999 19.76 4.78 19.49 4.51C19.22 4.24 18.77 4.24 18.5 4.51L12 11.01L5.49999 4.51C5.22999 4.24 4.78 4.24 4.51 4.51C4.24 4.78 4.24 5.22999 4.51 5.49999L11.01 12L4.51 18.5C4.24 18.77 4.24 19.22 4.51 19.49C4.65 19.63 4.83 19.7 5.01 19.7C5.19 19.7 5.37 19.63 5.51 19.49L12.01 12.99L18.51 19.49C18.65 19.63 18.83 19.7 19.01 19.7C19.19 19.7 19.37 19.63 19.51 19.49C19.78 19.22 19.78 18.77 19.51 18.5L13.01 12H12.99Z" fill="currentColor"/>
</g>
<defs>
<clipPath id="clip0_2_14989">
<rect width="24" height="24" fill="currentColor"/>
</clipPath>
</defs>
</svg>
