<svg width="18" height="18" viewBox="0 0 18 18" fill="currentColor" xmlns="http://www.w3.org/2000/svg">
<g clip-path="url(#clip0_2_15000)">
<path d="M9 3.02256C9.8325 3.02256 11.1 5.40756 11.1 9.00006C11.1 12.5926 9.8325 14.9776 9 14.9776C8.1675 14.9776 6.9 12.5926 6.9 9.00006C6.9 5.40756 8.1675 3.02256 9 3.02256ZM9 2.12256C7.3425 2.12256 6 5.19756 6 9.00006C6 12.8026 7.3425 15.8776 9 15.8776C10.6575 15.8776 12 12.8026 12 9.00006C12 5.19756 10.6575 2.12256 9 2.12256Z" fill="currentColor"/>
<path d="M9.00006 6.9C12.5926 6.9 14.9776 8.1675 14.9776 9C14.9776 9.8325 12.5926 11.1 9.00006 11.1C5.40756 11.1 3.02256 9.8325 3.02256 9C3.02256 8.1675 5.40756 6.9 9.00006 6.9ZM9.00006 6C5.20506 6 2.12256 7.3425 2.12256 9C2.12256 10.6575 5.19756 12 9.00006 12C12.8026 12 15.8776 10.6575 15.8776 9C15.8776 7.3425 12.8026 6 9.00006 6Z" fill="currentColor"/>
<path d="M9 2.775C12.435 2.775 15.225 5.565 15.225 9C15.225 12.435 12.435 15.225 9 15.225C5.565 15.225 2.775 12.435 2.775 9C2.775 5.565 5.565 2.775 9 2.775ZM9 1.875C5.0625 1.875 1.875 5.0625 1.875 9C1.875 12.9375 5.0625 16.125 9 16.125C12.9375 16.125 16.125 12.9375 16.125 9C16.125 5.0625 12.9375 1.875 9 1.875Z" fill="currentColor"/>
</g>
<defs>
<clipPath id="clip0_2_15000">
<rect width="18" height="18" fill="currentColor"/>
</clipPath>
</defs>
</svg>
